<?xml version="1.0" encoding="UTF-8" standalone="no"?>
<!DOCTYPE svg PUBLIC "-//W3C//DTD SVG 1.1//EN" "http://www.w3.org/Graphics/SVG/1.1/DTD/svg11.dtd">
<svg width="100%" height="100%" viewBox="0 0 5942 4384" version="1.1" xmlns="http://www.w3.org/2000/svg" xmlns:xlink="http://www.w3.org/1999/xlink" xml:space="preserve" xmlns:serif="http://www.serif.com/" style="fill-rule:evenodd;clip-rule:evenodd;">
    <g id="logo" transform="matrix(4.16667,0,0,4.16667,0,0)">
        <g transform="matrix(135,0,0,135,73.5605,827.727)">
            <path d="M0.41,-0.557L0.41,-0.051C0.41,-0.041 0.412,-0.034 0.417,-0.028C0.422,-0.023 0.43,-0.019 0.441,-0.016L0.441,-0L0.233,-0L0.233,-0.016C0.245,-0.019 0.253,-0.023 0.258,-0.028C0.262,-0.034 0.265,-0.041 0.265,-0.051L0.265,-0.557L0.058,-0.557C0.048,-0.557 0.04,-0.554 0.035,-0.55C0.03,-0.545 0.026,-0.537 0.022,-0.525L0.007,-0.525L0.007,-0.698L0.022,-0.698C0.026,-0.686 0.03,-0.678 0.035,-0.673C0.04,-0.669 0.048,-0.667 0.058,-0.667L0.617,-0.667C0.627,-0.667 0.634,-0.669 0.64,-0.673C0.645,-0.678 0.649,-0.686 0.652,-0.698L0.668,-0.698L0.668,-0.525L0.652,-0.525C0.649,-0.537 0.645,-0.545 0.64,-0.55C0.634,-0.554 0.627,-0.557 0.617,-0.557L0.41,-0.557Z" style="fill:rgb(35,31,32);fill-rule:nonzero;"/>
        </g>
        <g transform="matrix(135,0,0,135,168.606,827.727)">
            <path d="M0.565,-0.469L0.413,-0.084C0.404,-0.065 0.399,-0.053 0.399,-0.047C0.399,-0.032 0.411,-0.022 0.436,-0.016L0.436,-0L0.221,-0L0.221,-0.016C0.243,-0.02 0.254,-0.031 0.254,-0.049C0.254,-0.054 0.249,-0.068 0.24,-0.092L0.049,-0.584C0.04,-0.608 0.031,-0.625 0.024,-0.634C0.016,-0.642 0.005,-0.648 -0.01,-0.651L-0.01,-0.667L0.222,-0.667L0.222,-0.651C0.201,-0.646 0.191,-0.637 0.191,-0.622C0.191,-0.615 0.194,-0.604 0.199,-0.59L0.331,-0.237L0.473,-0.592C0.479,-0.607 0.482,-0.617 0.482,-0.622C0.482,-0.637 0.472,-0.647 0.45,-0.651L0.45,-0.667L0.692,-0.667L0.692,-0.651C0.67,-0.645 0.659,-0.634 0.659,-0.619C0.659,-0.614 0.661,-0.604 0.667,-0.59L0.803,-0.237L0.934,-0.584C0.941,-0.601 0.944,-0.614 0.944,-0.623C0.944,-0.637 0.933,-0.646 0.909,-0.651L0.909,-0.667L1.138,-0.667L1.138,-0.651C1.122,-0.646 1.111,-0.64 1.104,-0.633C1.098,-0.626 1.09,-0.61 1.08,-0.584L0.889,-0.092C0.88,-0.069 0.875,-0.053 0.875,-0.045C0.875,-0.029 0.887,-0.02 0.91,-0.016L0.91,-0L0.693,-0L0.693,-0.016C0.716,-0.019 0.727,-0.03 0.727,-0.048C0.727,-0.055 0.722,-0.069 0.712,-0.092L0.565,-0.469Z" style="fill:rgb(35,31,32);fill-rule:nonzero;"/>
        </g>
        <g transform="matrix(135,0,0,135,314.738,827.727)">
            <path d="M0.426,-0.678C0.542,-0.678 0.635,-0.647 0.703,-0.584C0.775,-0.518 0.811,-0.433 0.811,-0.329C0.811,-0.265 0.793,-0.206 0.759,-0.15C0.691,-0.042 0.581,0.012 0.427,0.012C0.312,0.012 0.22,-0.02 0.152,-0.083C0.116,-0.116 0.088,-0.156 0.069,-0.203C0.053,-0.244 0.044,-0.288 0.044,-0.333C0.044,-0.4 0.062,-0.461 0.096,-0.517C0.161,-0.622 0.271,-0.676 0.426,-0.678ZM0.427,-0.565C0.363,-0.565 0.31,-0.546 0.268,-0.508C0.218,-0.464 0.193,-0.405 0.193,-0.333C0.193,-0.261 0.218,-0.203 0.268,-0.158C0.31,-0.12 0.364,-0.102 0.428,-0.102C0.492,-0.102 0.545,-0.12 0.587,-0.158C0.612,-0.181 0.631,-0.208 0.645,-0.241C0.656,-0.27 0.662,-0.299 0.662,-0.33C0.662,-0.406 0.637,-0.465 0.587,-0.508C0.544,-0.545 0.491,-0.564 0.427,-0.565Z" style="fill:rgb(35,31,32);fill-rule:nonzero;"/>
        </g>
        <g transform="matrix(135,0,0,135,463.985,827.727)">
            <path d="M0.41,-0.557L0.41,-0.051C0.41,-0.041 0.412,-0.034 0.417,-0.028C0.422,-0.023 0.43,-0.019 0.441,-0.016L0.441,-0L0.233,-0L0.233,-0.016C0.245,-0.019 0.253,-0.023 0.258,-0.028C0.262,-0.034 0.265,-0.041 0.265,-0.051L0.265,-0.557L0.058,-0.557C0.048,-0.557 0.04,-0.554 0.035,-0.55C0.03,-0.545 0.026,-0.537 0.022,-0.525L0.007,-0.525L0.007,-0.698L0.022,-0.698C0.026,-0.686 0.03,-0.678 0.035,-0.673C0.04,-0.669 0.048,-0.667 0.058,-0.667L0.617,-0.667C0.627,-0.667 0.634,-0.669 0.64,-0.673C0.645,-0.678 0.649,-0.686 0.652,-0.698L0.668,-0.698L0.668,-0.525L0.652,-0.525C0.649,-0.537 0.645,-0.545 0.64,-0.55C0.634,-0.554 0.627,-0.557 0.617,-0.557L0.41,-0.557Z" style="fill:rgb(35,31,32);fill-rule:nonzero;"/>
        </g>
        <g transform="matrix(135,0,0,135,554.138,827.727)">
            <path d="M0.621,-0.291L0.237,-0.291L0.237,-0.051C0.237,-0.041 0.239,-0.033 0.244,-0.028C0.249,-0.023 0.257,-0.019 0.268,-0.016L0.268,-0L0.06,-0L0.06,-0.016C0.072,-0.019 0.08,-0.023 0.084,-0.028C0.089,-0.034 0.091,-0.041 0.091,-0.051L0.091,-0.616C0.091,-0.625 0.089,-0.633 0.084,-0.638C0.08,-0.643 0.072,-0.648 0.06,-0.651L0.06,-0.667L0.268,-0.667L0.268,-0.651C0.256,-0.648 0.248,-0.644 0.244,-0.638C0.239,-0.633 0.237,-0.625 0.237,-0.616L0.237,-0.401L0.621,-0.401L0.621,-0.616C0.621,-0.625 0.619,-0.633 0.614,-0.638C0.61,-0.644 0.602,-0.648 0.59,-0.651L0.59,-0.667L0.798,-0.667L0.798,-0.651C0.786,-0.648 0.778,-0.643 0.773,-0.638C0.769,-0.633 0.767,-0.625 0.767,-0.616L0.767,-0.051C0.767,-0.041 0.769,-0.034 0.773,-0.028C0.778,-0.023 0.786,-0.019 0.798,-0.016L0.798,-0L0.59,-0L0.59,-0.016C0.601,-0.019 0.609,-0.023 0.614,-0.028C0.619,-0.033 0.621,-0.041 0.621,-0.051L0.621,-0.291Z" style="fill:rgb(35,31,32);fill-rule:nonzero;"/>
        </g>
        <g transform="matrix(135,0,0,135,667.528,827.727)">
            <path d="M0.738,-0.615L0.738,-0.242C0.738,-0.171 0.725,-0.118 0.699,-0.083C0.652,-0.02 0.556,0.012 0.409,0.012C0.303,0.012 0.221,-0.005 0.165,-0.04C0.132,-0.059 0.109,-0.086 0.097,-0.121C0.084,-0.154 0.078,-0.195 0.078,-0.242L0.078,-0.615C0.078,-0.625 0.076,-0.633 0.071,-0.638C0.067,-0.643 0.059,-0.648 0.047,-0.651L0.047,-0.667L0.255,-0.667L0.255,-0.651C0.244,-0.648 0.235,-0.644 0.231,-0.638C0.226,-0.633 0.224,-0.625 0.224,-0.615L0.224,-0.283C0.224,-0.244 0.226,-0.216 0.23,-0.198C0.234,-0.179 0.242,-0.164 0.254,-0.151C0.285,-0.118 0.339,-0.102 0.414,-0.102C0.49,-0.102 0.543,-0.118 0.575,-0.151C0.586,-0.164 0.594,-0.179 0.598,-0.198C0.602,-0.216 0.604,-0.244 0.604,-0.283L0.604,-0.615C0.604,-0.625 0.602,-0.633 0.598,-0.638C0.593,-0.643 0.585,-0.648 0.573,-0.651L0.573,-0.667L0.77,-0.667L0.77,-0.651C0.758,-0.648 0.75,-0.643 0.745,-0.638C0.741,-0.633 0.738,-0.625 0.738,-0.615Z" style="fill:rgb(35,31,32);fill-rule:nonzero;"/>
        </g>
        <g transform="matrix(135,0,0,135,775.25,827.727)">
            <path d="M0.47,-0L0.225,-0.46L0.225,-0.051C0.225,-0.041 0.227,-0.034 0.231,-0.028C0.236,-0.023 0.244,-0.019 0.256,-0.016L0.256,-0L0.06,-0L0.06,-0.016C0.072,-0.019 0.08,-0.023 0.084,-0.028C0.089,-0.034 0.091,-0.041 0.091,-0.051L0.091,-0.616C0.091,-0.625 0.089,-0.633 0.084,-0.638C0.08,-0.643 0.072,-0.648 0.06,-0.651L0.06,-0.667L0.317,-0.667L0.317,-0.651C0.302,-0.647 0.294,-0.638 0.294,-0.624C0.294,-0.618 0.296,-0.61 0.301,-0.602L0.482,-0.257L0.667,-0.596C0.675,-0.611 0.679,-0.622 0.679,-0.628C0.679,-0.642 0.671,-0.649 0.654,-0.651L0.654,-0.667L0.906,-0.667L0.906,-0.651C0.895,-0.648 0.886,-0.643 0.882,-0.638C0.877,-0.633 0.875,-0.625 0.875,-0.616L0.875,-0.051C0.875,-0.041 0.877,-0.034 0.882,-0.028C0.886,-0.023 0.895,-0.019 0.906,-0.016L0.906,-0L0.698,-0L0.698,-0.016C0.71,-0.019 0.718,-0.023 0.722,-0.028C0.727,-0.033 0.729,-0.041 0.729,-0.051L0.729,-0.46L0.47,-0Z" style="fill:rgb(35,31,32);fill-rule:nonzero;"/>
        </g>
        <g transform="matrix(135,0,0,135,903.275,827.727)">
            <path d="M0.654,-0.349C0.729,-0.321 0.766,-0.268 0.766,-0.192C0.766,-0.131 0.744,-0.083 0.701,-0.049C0.679,-0.032 0.653,-0.019 0.624,-0.011C0.595,-0.004 0.559,-0 0.516,-0L0.06,-0L0.06,-0.016C0.072,-0.019 0.08,-0.023 0.084,-0.028C0.089,-0.034 0.091,-0.041 0.091,-0.051L0.091,-0.615C0.091,-0.625 0.089,-0.633 0.084,-0.638C0.08,-0.643 0.072,-0.648 0.06,-0.651L0.06,-0.667L0.511,-0.667C0.555,-0.667 0.589,-0.663 0.616,-0.657C0.642,-0.65 0.665,-0.639 0.685,-0.624C0.724,-0.593 0.744,-0.548 0.744,-0.49C0.744,-0.425 0.714,-0.378 0.654,-0.349ZM0.237,-0.401L0.492,-0.401C0.531,-0.401 0.558,-0.407 0.573,-0.418C0.59,-0.431 0.599,-0.452 0.599,-0.479C0.599,-0.507 0.591,-0.527 0.575,-0.539C0.558,-0.551 0.531,-0.557 0.492,-0.557L0.237,-0.557L0.237,-0.401ZM0.237,-0.11L0.484,-0.11C0.53,-0.11 0.563,-0.116 0.583,-0.129C0.606,-0.144 0.618,-0.167 0.618,-0.201C0.618,-0.234 0.606,-0.257 0.583,-0.272C0.563,-0.285 0.53,-0.292 0.484,-0.292L0.237,-0.292L0.237,-0.11Z" style="fill:rgb(35,31,32);fill-rule:nonzero;"/>
        </g>
        <g transform="matrix(135,0,0,135,1010.69,827.727)">
            <path d="M0.68,-0.61L0.601,-0.453L0.587,-0.461C0.587,-0.464 0.587,-0.467 0.587,-0.469C0.587,-0.48 0.578,-0.492 0.559,-0.504C0.501,-0.545 0.433,-0.565 0.355,-0.565C0.32,-0.565 0.29,-0.561 0.264,-0.552C0.244,-0.546 0.229,-0.536 0.217,-0.523C0.205,-0.51 0.199,-0.496 0.199,-0.481C0.199,-0.456 0.214,-0.438 0.245,-0.429C0.26,-0.425 0.294,-0.42 0.345,-0.415L0.422,-0.407C0.467,-0.402 0.504,-0.395 0.532,-0.387C0.561,-0.378 0.586,-0.367 0.607,-0.351C0.63,-0.335 0.647,-0.314 0.66,-0.288C0.673,-0.262 0.679,-0.235 0.679,-0.205C0.679,-0.158 0.664,-0.116 0.634,-0.08C0.606,-0.047 0.564,-0.022 0.506,-0.006C0.463,0.006 0.417,0.012 0.368,0.012C0.28,0.012 0.193,-0.009 0.107,-0.052C0.089,-0.06 0.078,-0.064 0.074,-0.064C0.07,-0.064 0.063,-0.061 0.054,-0.054L0.04,-0.061L0.112,-0.225L0.126,-0.218L0.126,-0.211C0.126,-0.197 0.133,-0.183 0.147,-0.171C0.169,-0.152 0.201,-0.136 0.246,-0.122C0.29,-0.108 0.332,-0.102 0.372,-0.102C0.415,-0.102 0.452,-0.109 0.482,-0.123C0.499,-0.132 0.513,-0.142 0.523,-0.156C0.533,-0.169 0.538,-0.183 0.538,-0.198C0.538,-0.22 0.526,-0.236 0.502,-0.245C0.486,-0.252 0.452,-0.258 0.402,-0.263L0.327,-0.271C0.276,-0.276 0.241,-0.281 0.22,-0.286C0.199,-0.291 0.178,-0.298 0.157,-0.309C0.128,-0.323 0.104,-0.345 0.087,-0.375C0.072,-0.401 0.064,-0.431 0.064,-0.466C0.064,-0.522 0.084,-0.569 0.123,-0.605C0.173,-0.654 0.25,-0.678 0.351,-0.678C0.394,-0.678 0.433,-0.674 0.47,-0.665C0.507,-0.657 0.553,-0.641 0.608,-0.617C0.627,-0.61 0.638,-0.606 0.643,-0.606C0.649,-0.606 0.657,-0.61 0.667,-0.617L0.68,-0.61Z" style="fill:rgb(35,31,32);fill-rule:nonzero;"/>
        </g>
        <g transform="matrix(135,0,0,135,1141.67,827.727)">
            <path d="M0.738,-0.615L0.738,-0.242C0.738,-0.171 0.725,-0.118 0.699,-0.083C0.652,-0.02 0.556,0.012 0.409,0.012C0.303,0.012 0.221,-0.005 0.165,-0.04C0.132,-0.059 0.109,-0.086 0.097,-0.121C0.084,-0.154 0.078,-0.195 0.078,-0.242L0.078,-0.615C0.078,-0.625 0.076,-0.633 0.071,-0.638C0.067,-0.643 0.059,-0.648 0.047,-0.651L0.047,-0.667L0.255,-0.667L0.255,-0.651C0.244,-0.648 0.235,-0.644 0.231,-0.638C0.226,-0.633 0.224,-0.625 0.224,-0.615L0.224,-0.283C0.224,-0.244 0.226,-0.216 0.23,-0.198C0.234,-0.179 0.242,-0.164 0.254,-0.151C0.285,-0.118 0.339,-0.102 0.414,-0.102C0.49,-0.102 0.543,-0.118 0.575,-0.151C0.586,-0.164 0.594,-0.179 0.598,-0.198C0.602,-0.216 0.604,-0.244 0.604,-0.283L0.604,-0.615C0.604,-0.625 0.602,-0.633 0.598,-0.638C0.593,-0.643 0.585,-0.648 0.573,-0.651L0.573,-0.667L0.77,-0.667L0.77,-0.651C0.758,-0.648 0.75,-0.643 0.745,-0.638C0.741,-0.633 0.738,-0.625 0.738,-0.615Z" style="fill:rgb(35,31,32);fill-rule:nonzero;"/>
        </g>
        <g transform="matrix(135,0,0,135,1249.26,827.727)">
            <path d="M0.237,-0.271L0.237,-0.051C0.237,-0.041 0.239,-0.033 0.244,-0.028C0.249,-0.023 0.257,-0.019 0.268,-0.016L0.268,-0L0.06,-0L0.06,-0.016C0.072,-0.019 0.08,-0.023 0.084,-0.028C0.089,-0.034 0.091,-0.041 0.091,-0.051L0.091,-0.615C0.091,-0.625 0.089,-0.633 0.084,-0.638C0.08,-0.643 0.072,-0.648 0.06,-0.651L0.06,-0.667L0.476,-0.667C0.525,-0.667 0.563,-0.663 0.592,-0.657C0.62,-0.65 0.645,-0.639 0.667,-0.623C0.689,-0.606 0.707,-0.585 0.72,-0.558C0.732,-0.53 0.739,-0.5 0.739,-0.469C0.739,-0.424 0.727,-0.384 0.703,-0.351C0.682,-0.322 0.654,-0.301 0.62,-0.289C0.586,-0.277 0.538,-0.271 0.476,-0.271L0.237,-0.271ZM0.237,-0.38L0.459,-0.38C0.503,-0.38 0.534,-0.385 0.552,-0.395C0.564,-0.401 0.573,-0.411 0.58,-0.424C0.587,-0.438 0.59,-0.452 0.59,-0.469C0.59,-0.485 0.587,-0.499 0.58,-0.513C0.573,-0.526 0.564,-0.536 0.552,-0.542C0.535,-0.552 0.504,-0.557 0.459,-0.557L0.237,-0.557L0.237,-0.38Z" style="fill:rgb(35,31,32);fill-rule:nonzero;"/>
        </g>
        <g transform="matrix(135,0,0,135,165.09,947.742)">
            <path d="M0.583,-0.196L0.665,-0.076L0.654,-0.067C0.646,-0.073 0.64,-0.076 0.635,-0.076C0.63,-0.076 0.617,-0.07 0.597,-0.058C0.552,-0.032 0.513,-0.014 0.479,-0.003C0.444,0.007 0.405,0.012 0.36,0.012C0.271,0.012 0.198,-0.01 0.142,-0.052C0.11,-0.077 0.085,-0.107 0.066,-0.144C0.046,-0.184 0.036,-0.227 0.036,-0.273C0.036,-0.338 0.054,-0.394 0.091,-0.443C0.15,-0.52 0.239,-0.559 0.359,-0.559C0.404,-0.559 0.444,-0.554 0.478,-0.543C0.513,-0.533 0.552,-0.515 0.597,-0.489C0.617,-0.477 0.63,-0.471 0.635,-0.471C0.64,-0.471 0.646,-0.474 0.654,-0.479L0.665,-0.471L0.583,-0.351L0.572,-0.359C0.572,-0.363 0.572,-0.365 0.573,-0.366C0.573,-0.369 0.573,-0.371 0.573,-0.372C0.573,-0.388 0.551,-0.406 0.507,-0.426C0.466,-0.446 0.424,-0.455 0.381,-0.455C0.322,-0.455 0.273,-0.439 0.235,-0.408C0.191,-0.373 0.169,-0.328 0.169,-0.273C0.169,-0.218 0.191,-0.173 0.235,-0.138C0.274,-0.107 0.322,-0.092 0.381,-0.092C0.428,-0.092 0.474,-0.103 0.52,-0.126C0.555,-0.145 0.573,-0.161 0.573,-0.174C0.573,-0.175 0.573,-0.18 0.572,-0.188L0.583,-0.196Z" style="fill:rgb(35,31,32);fill-rule:nonzero;"/>
        </g>
        <g transform="matrix(135,0,0,135,254.744,947.742)">
            <path d="M0.355,-0.559C0.442,-0.559 0.515,-0.536 0.573,-0.492C0.642,-0.439 0.677,-0.364 0.677,-0.269C0.677,-0.18 0.642,-0.108 0.573,-0.055C0.515,-0.01 0.443,0.012 0.356,0.012C0.27,0.012 0.197,-0.01 0.14,-0.055C0.07,-0.108 0.036,-0.181 0.036,-0.273C0.036,-0.367 0.07,-0.44 0.14,-0.492C0.198,-0.535 0.27,-0.558 0.355,-0.559ZM0.356,-0.455C0.3,-0.455 0.254,-0.437 0.218,-0.401C0.185,-0.367 0.169,-0.325 0.169,-0.273C0.169,-0.223 0.185,-0.18 0.218,-0.146C0.254,-0.11 0.3,-0.092 0.356,-0.092C0.413,-0.092 0.459,-0.11 0.494,-0.146C0.527,-0.18 0.543,-0.222 0.543,-0.271C0.543,-0.325 0.527,-0.368 0.494,-0.401C0.458,-0.436 0.412,-0.454 0.356,-0.455Z" style="fill:rgb(35,31,32);fill-rule:nonzero;"/>
        </g>
        <g transform="matrix(135,0,0,135,347.489,947.742)">
            <path d="M0.198,-0.36L0.198,-0.05C0.198,-0.04 0.201,-0.032 0.205,-0.027C0.21,-0.021 0.218,-0.017 0.229,-0.014L0.229,-0L0.048,-0L0.048,-0.014C0.059,-0.017 0.067,-0.021 0.072,-0.026C0.077,-0.032 0.079,-0.04 0.079,-0.05L0.079,-0.497C0.079,-0.507 0.077,-0.515 0.072,-0.52C0.068,-0.525 0.06,-0.53 0.048,-0.533L0.048,-0.547L0.258,-0.547L0.258,-0.533C0.243,-0.53 0.236,-0.523 0.236,-0.514C0.236,-0.506 0.242,-0.497 0.252,-0.487L0.545,-0.196L0.545,-0.497C0.545,-0.507 0.543,-0.515 0.538,-0.52C0.534,-0.526 0.525,-0.53 0.514,-0.533L0.514,-0.547L0.695,-0.547L0.695,-0.533C0.684,-0.53 0.675,-0.526 0.671,-0.52C0.666,-0.515 0.664,-0.507 0.664,-0.497L0.664,-0.05C0.664,-0.04 0.666,-0.032 0.671,-0.027C0.675,-0.022 0.684,-0.017 0.695,-0.014L0.695,-0L0.5,-0L0.5,-0.014C0.514,-0.017 0.521,-0.023 0.521,-0.032C0.521,-0.036 0.519,-0.041 0.515,-0.046C0.511,-0.05 0.502,-0.06 0.488,-0.074L0.198,-0.36Z" style="fill:rgb(35,31,32);fill-rule:nonzero;"/>
        </g>
        <g transform="matrix(135,0,0,135,445.283,947.742)">
            <path d="M0.574,-0.498L0.508,-0.37L0.496,-0.376C0.496,-0.387 0.493,-0.396 0.486,-0.402C0.467,-0.418 0.44,-0.432 0.404,-0.443C0.368,-0.454 0.331,-0.459 0.294,-0.459C0.262,-0.459 0.234,-0.455 0.21,-0.446C0.175,-0.433 0.157,-0.415 0.157,-0.391C0.157,-0.375 0.166,-0.363 0.183,-0.357C0.2,-0.35 0.232,-0.345 0.281,-0.341L0.358,-0.335C0.425,-0.33 0.477,-0.317 0.512,-0.296C0.531,-0.284 0.547,-0.269 0.56,-0.249C0.576,-0.225 0.584,-0.197 0.584,-0.167C0.584,-0.111 0.559,-0.067 0.509,-0.035C0.461,-0.004 0.396,0.012 0.314,0.012C0.232,0.012 0.153,-0.006 0.076,-0.041C0.07,-0.043 0.066,-0.044 0.063,-0.044C0.056,-0.044 0.05,-0.04 0.044,-0.032L0.032,-0.037L0.088,-0.171L0.101,-0.166L0.101,-0.162C0.101,-0.154 0.104,-0.146 0.11,-0.141C0.127,-0.126 0.155,-0.114 0.195,-0.103C0.235,-0.093 0.274,-0.087 0.313,-0.087C0.348,-0.087 0.379,-0.092 0.406,-0.101C0.44,-0.112 0.457,-0.13 0.457,-0.155C0.457,-0.175 0.445,-0.188 0.422,-0.196C0.406,-0.201 0.378,-0.206 0.337,-0.209L0.261,-0.216C0.219,-0.219 0.188,-0.223 0.166,-0.229C0.144,-0.234 0.125,-0.241 0.109,-0.251C0.088,-0.264 0.072,-0.282 0.06,-0.305C0.048,-0.327 0.042,-0.352 0.042,-0.378C0.042,-0.438 0.068,-0.484 0.12,-0.516C0.167,-0.544 0.224,-0.559 0.293,-0.559C0.331,-0.559 0.366,-0.554 0.398,-0.546C0.431,-0.538 0.469,-0.523 0.514,-0.502C0.528,-0.496 0.537,-0.493 0.542,-0.493C0.547,-0.493 0.554,-0.497 0.562,-0.504L0.574,-0.498Z" style="fill:rgb(35,31,32);fill-rule:nonzero;"/>
        </g>
        <g transform="matrix(135,0,0,135,527.768,947.742)">
            <path d="M0.35,-0.448L0.35,-0.05C0.35,-0.04 0.352,-0.032 0.356,-0.027C0.361,-0.022 0.369,-0.017 0.381,-0.014L0.381,-0L0.188,-0L0.188,-0.014C0.199,-0.017 0.207,-0.021 0.212,-0.026C0.216,-0.032 0.219,-0.04 0.219,-0.05L0.219,-0.448L0.058,-0.448C0.047,-0.448 0.039,-0.445 0.034,-0.441C0.029,-0.436 0.024,-0.428 0.021,-0.417L0.008,-0.417L0.008,-0.578L0.021,-0.578C0.024,-0.567 0.029,-0.559 0.034,-0.554C0.039,-0.549 0.047,-0.547 0.058,-0.547L0.511,-0.547C0.521,-0.547 0.529,-0.549 0.534,-0.554C0.54,-0.558 0.544,-0.566 0.547,-0.578L0.561,-0.578L0.561,-0.417L0.547,-0.417C0.544,-0.428 0.54,-0.436 0.534,-0.441C0.529,-0.445 0.521,-0.448 0.511,-0.448L0.35,-0.448Z" style="fill:rgb(35,31,32);fill-rule:nonzero;"/>
        </g>
        <g transform="matrix(135,0,0,135,603.449,947.742)">
            <path d="M0.21,-0.225L0.21,-0.05C0.21,-0.04 0.212,-0.032 0.217,-0.027C0.221,-0.022 0.229,-0.017 0.241,-0.014L0.241,-0L0.048,-0L0.048,-0.014C0.059,-0.017 0.067,-0.021 0.072,-0.026C0.077,-0.032 0.079,-0.04 0.079,-0.05L0.079,-0.497C0.079,-0.507 0.077,-0.515 0.072,-0.52C0.068,-0.525 0.06,-0.53 0.048,-0.533L0.048,-0.547L0.406,-0.547C0.453,-0.547 0.488,-0.545 0.513,-0.54C0.537,-0.535 0.559,-0.527 0.578,-0.514C0.618,-0.488 0.637,-0.446 0.637,-0.388C0.637,-0.344 0.625,-0.309 0.601,-0.284C0.577,-0.26 0.537,-0.242 0.483,-0.23L0.587,-0.086C0.606,-0.06 0.621,-0.042 0.632,-0.032C0.643,-0.022 0.656,-0.016 0.67,-0.014L0.67,-0L0.441,-0L0.441,-0.014C0.458,-0.018 0.466,-0.026 0.466,-0.036C0.466,-0.043 0.461,-0.054 0.451,-0.068L0.341,-0.225L0.21,-0.225ZM0.21,-0.324L0.407,-0.324C0.437,-0.324 0.459,-0.327 0.474,-0.333C0.494,-0.342 0.504,-0.36 0.504,-0.386C0.504,-0.409 0.497,-0.425 0.483,-0.434C0.469,-0.443 0.443,-0.448 0.407,-0.448L0.21,-0.448L0.21,-0.324Z" style="fill:rgb(35,31,32);fill-rule:nonzero;"/>
        </g>
        <g transform="matrix(135,0,0,135,692.225,947.742)">
            <path d="M0.622,-0.497L0.622,-0.208C0.622,-0.141 0.609,-0.093 0.583,-0.062C0.541,-0.013 0.461,0.012 0.345,0.012C0.267,0.012 0.205,-0 0.157,-0.024C0.122,-0.041 0.099,-0.066 0.086,-0.098C0.074,-0.127 0.068,-0.164 0.068,-0.208L0.068,-0.497C0.068,-0.507 0.066,-0.515 0.062,-0.52C0.057,-0.525 0.049,-0.53 0.037,-0.533L0.037,-0.547L0.231,-0.547L0.231,-0.533C0.219,-0.53 0.211,-0.526 0.206,-0.52C0.201,-0.515 0.199,-0.507 0.199,-0.497L0.199,-0.234C0.199,-0.203 0.202,-0.18 0.207,-0.164C0.213,-0.147 0.222,-0.134 0.235,-0.124C0.262,-0.102 0.301,-0.092 0.351,-0.092C0.402,-0.092 0.44,-0.102 0.467,-0.124C0.48,-0.134 0.489,-0.147 0.494,-0.164C0.499,-0.18 0.502,-0.203 0.502,-0.234L0.502,-0.497C0.502,-0.507 0.5,-0.515 0.495,-0.52C0.491,-0.525 0.483,-0.53 0.471,-0.533L0.471,-0.547L0.653,-0.547L0.653,-0.533C0.641,-0.53 0.633,-0.526 0.628,-0.52C0.624,-0.515 0.622,-0.507 0.622,-0.497Z" style="fill:rgb(35,31,32);fill-rule:nonzero;"/>
        </g>
        <g transform="matrix(135,0,0,135,781.865,947.742)">
            <path d="M0.583,-0.196L0.665,-0.076L0.654,-0.067C0.646,-0.073 0.64,-0.076 0.635,-0.076C0.63,-0.076 0.617,-0.07 0.597,-0.058C0.552,-0.032 0.513,-0.014 0.479,-0.003C0.444,0.007 0.405,0.012 0.36,0.012C0.271,0.012 0.198,-0.01 0.142,-0.052C0.11,-0.077 0.085,-0.107 0.066,-0.144C0.046,-0.184 0.036,-0.227 0.036,-0.273C0.036,-0.338 0.054,-0.394 0.091,-0.443C0.15,-0.52 0.239,-0.559 0.359,-0.559C0.404,-0.559 0.444,-0.554 0.478,-0.543C0.513,-0.533 0.552,-0.515 0.597,-0.489C0.617,-0.477 0.63,-0.471 0.635,-0.471C0.64,-0.471 0.646,-0.474 0.654,-0.479L0.665,-0.471L0.583,-0.351L0.572,-0.359C0.572,-0.363 0.572,-0.365 0.573,-0.366C0.573,-0.369 0.573,-0.371 0.573,-0.372C0.573,-0.388 0.551,-0.406 0.507,-0.426C0.466,-0.446 0.424,-0.455 0.381,-0.455C0.322,-0.455 0.273,-0.439 0.235,-0.408C0.191,-0.373 0.169,-0.328 0.169,-0.273C0.169,-0.218 0.191,-0.173 0.235,-0.138C0.274,-0.107 0.322,-0.092 0.381,-0.092C0.428,-0.092 0.474,-0.103 0.52,-0.126C0.555,-0.145 0.573,-0.161 0.573,-0.174C0.573,-0.175 0.573,-0.18 0.572,-0.188L0.583,-0.196Z" style="fill:rgb(35,31,32);fill-rule:nonzero;"/>
        </g>
        <g transform="matrix(135,0,0,135,876.082,947.742)">
            <path d="M0.35,-0.448L0.35,-0.05C0.35,-0.04 0.352,-0.032 0.356,-0.027C0.361,-0.022 0.369,-0.017 0.381,-0.014L0.381,-0L0.188,-0L0.188,-0.014C0.199,-0.017 0.207,-0.021 0.212,-0.026C0.216,-0.032 0.219,-0.04 0.219,-0.05L0.219,-0.448L0.058,-0.448C0.047,-0.448 0.039,-0.445 0.034,-0.441C0.029,-0.436 0.024,-0.428 0.021,-0.417L0.008,-0.417L0.008,-0.578L0.021,-0.578C0.024,-0.567 0.029,-0.559 0.034,-0.554C0.039,-0.549 0.047,-0.547 0.058,-0.547L0.511,-0.547C0.521,-0.547 0.529,-0.549 0.534,-0.554C0.54,-0.558 0.544,-0.566 0.547,-0.578L0.561,-0.578L0.561,-0.417L0.547,-0.417C0.544,-0.428 0.54,-0.436 0.534,-0.441C0.529,-0.445 0.521,-0.448 0.511,-0.448L0.35,-0.448Z" style="fill:rgb(35,31,32);fill-rule:nonzero;"/>
        </g>
        <g transform="matrix(135,0,0,135,951.776,947.742)">
            <path d="M0.21,-0.497L0.21,-0.05C0.21,-0.04 0.212,-0.032 0.217,-0.027C0.221,-0.022 0.229,-0.017 0.241,-0.014L0.241,-0L0.048,-0L0.048,-0.014C0.059,-0.017 0.067,-0.021 0.072,-0.026C0.077,-0.032 0.079,-0.04 0.079,-0.05L0.079,-0.497C0.079,-0.507 0.077,-0.515 0.072,-0.52C0.068,-0.525 0.06,-0.53 0.048,-0.533L0.048,-0.547L0.241,-0.547L0.241,-0.533C0.229,-0.53 0.221,-0.526 0.217,-0.52C0.212,-0.515 0.21,-0.507 0.21,-0.497Z" style="fill:rgb(35,31,32);fill-rule:nonzero;"/>
        </g>
        <g transform="matrix(135,0,0,135,987.332,947.742)">
            <path d="M0.355,-0.559C0.442,-0.559 0.515,-0.536 0.573,-0.492C0.642,-0.439 0.677,-0.364 0.677,-0.269C0.677,-0.18 0.642,-0.108 0.573,-0.055C0.515,-0.01 0.443,0.012 0.356,0.012C0.27,0.012 0.197,-0.01 0.14,-0.055C0.07,-0.108 0.036,-0.181 0.036,-0.273C0.036,-0.367 0.07,-0.44 0.14,-0.492C0.198,-0.535 0.27,-0.558 0.355,-0.559ZM0.356,-0.455C0.3,-0.455 0.254,-0.437 0.218,-0.401C0.185,-0.367 0.169,-0.325 0.169,-0.273C0.169,-0.223 0.185,-0.18 0.218,-0.146C0.254,-0.11 0.3,-0.092 0.356,-0.092C0.413,-0.092 0.459,-0.11 0.494,-0.146C0.527,-0.18 0.543,-0.222 0.543,-0.271C0.543,-0.325 0.527,-0.368 0.494,-0.401C0.458,-0.436 0.412,-0.454 0.356,-0.455Z" style="fill:rgb(35,31,32);fill-rule:nonzero;"/>
        </g>
        <g transform="matrix(135,0,0,135,1080.04,947.742)">
            <path d="M0.198,-0.36L0.198,-0.05C0.198,-0.04 0.201,-0.032 0.205,-0.027C0.21,-0.021 0.218,-0.017 0.229,-0.014L0.229,-0L0.048,-0L0.048,-0.014C0.059,-0.017 0.067,-0.021 0.072,-0.026C0.077,-0.032 0.079,-0.04 0.079,-0.05L0.079,-0.497C0.079,-0.507 0.077,-0.515 0.072,-0.52C0.068,-0.525 0.06,-0.53 0.048,-0.533L0.048,-0.547L0.258,-0.547L0.258,-0.533C0.243,-0.53 0.236,-0.523 0.236,-0.514C0.236,-0.506 0.242,-0.497 0.252,-0.487L0.545,-0.196L0.545,-0.497C0.545,-0.507 0.543,-0.515 0.538,-0.52C0.534,-0.526 0.525,-0.53 0.514,-0.533L0.514,-0.547L0.695,-0.547L0.695,-0.533C0.684,-0.53 0.675,-0.526 0.671,-0.52C0.666,-0.515 0.664,-0.507 0.664,-0.497L0.664,-0.05C0.664,-0.04 0.666,-0.032 0.671,-0.027C0.675,-0.022 0.684,-0.017 0.695,-0.014L0.695,-0L0.5,-0L0.5,-0.014C0.514,-0.017 0.521,-0.023 0.521,-0.032C0.521,-0.036 0.519,-0.041 0.515,-0.046C0.511,-0.05 0.502,-0.06 0.488,-0.074L0.198,-0.36Z" style="fill:rgb(35,31,32);fill-rule:nonzero;"/>
        </g>
        <g transform="matrix(135,0,0,135,1177.85,947.742)">
            <path d="M0.574,-0.498L0.508,-0.37L0.496,-0.376C0.496,-0.387 0.493,-0.396 0.486,-0.402C0.467,-0.418 0.44,-0.432 0.404,-0.443C0.368,-0.454 0.331,-0.459 0.294,-0.459C0.262,-0.459 0.234,-0.455 0.21,-0.446C0.175,-0.433 0.157,-0.415 0.157,-0.391C0.157,-0.375 0.166,-0.363 0.183,-0.357C0.2,-0.35 0.232,-0.345 0.281,-0.341L0.358,-0.335C0.425,-0.33 0.477,-0.317 0.512,-0.296C0.531,-0.284 0.547,-0.269 0.56,-0.249C0.576,-0.225 0.584,-0.197 0.584,-0.167C0.584,-0.111 0.559,-0.067 0.509,-0.035C0.461,-0.004 0.396,0.012 0.314,0.012C0.232,0.012 0.153,-0.006 0.076,-0.041C0.07,-0.043 0.066,-0.044 0.063,-0.044C0.056,-0.044 0.05,-0.04 0.044,-0.032L0.032,-0.037L0.088,-0.171L0.101,-0.166L0.101,-0.162C0.101,-0.154 0.104,-0.146 0.11,-0.141C0.127,-0.126 0.155,-0.114 0.195,-0.103C0.235,-0.093 0.274,-0.087 0.313,-0.087C0.348,-0.087 0.379,-0.092 0.406,-0.101C0.44,-0.112 0.457,-0.13 0.457,-0.155C0.457,-0.175 0.445,-0.188 0.422,-0.196C0.406,-0.201 0.378,-0.206 0.337,-0.209L0.261,-0.216C0.219,-0.219 0.188,-0.223 0.166,-0.229C0.144,-0.234 0.125,-0.241 0.109,-0.251C0.088,-0.264 0.072,-0.282 0.06,-0.305C0.048,-0.327 0.042,-0.352 0.042,-0.378C0.042,-0.438 0.068,-0.484 0.12,-0.516C0.167,-0.544 0.224,-0.559 0.293,-0.559C0.331,-0.559 0.366,-0.554 0.398,-0.546C0.431,-0.538 0.469,-0.523 0.514,-0.502C0.528,-0.496 0.537,-0.493 0.542,-0.493C0.547,-0.493 0.554,-0.497 0.562,-0.504L0.574,-0.498Z" style="fill:rgb(35,31,32);fill-rule:nonzero;"/>
        </g>
        <g transform="matrix(1,0,0,1,338,462.397)">
            <path d="M0,21.231C0,21.231 42.699,33.266 59.243,27.278C74.992,21.577 106.8,-57.622 135.223,-100.071C151.228,-121.097 174.157,-135.89 175.989,-169.671C178.352,-193.717 192.035,-187.198 209.794,-169.671C230.878,-145.519 227.673,-116.343 213.771,-96.094C139.878,11.543 269.892,-45.808 299.694,-32.212C347.12,-10.579 315.77,26.616 315.77,26.616C337.918,45.795 331.452,67.639 308.81,85.28C327.129,106.116 323.487,124.426 293.895,142.202C302.085,161.639 320.389,190.042 264.556,206.168C255.151,208.885 164.614,214.948 111.36,196.225C94.564,190.428 76.82,189.413 35.3,191.668L0.167,193.577L0,21.231Z" style="fill:none;fill-rule:nonzero;stroke:rgb(158,65,33);stroke-width:15px;"/>
        </g>
        <g transform="matrix(1,0,0,1,1088,462.397)">
            <path d="M0,21.231C0,21.231 -42.699,33.266 -59.243,27.278C-74.992,21.577 -106.801,-57.622 -135.223,-100.071C-151.228,-121.097 -174.157,-135.89 -175.988,-169.671C-178.352,-193.717 -192.034,-187.198 -209.794,-169.671C-230.878,-145.519 -227.673,-116.343 -213.771,-96.094C-139.878,11.543 -269.892,-45.808 -299.694,-32.212C-347.12,-10.579 -315.77,26.616 -315.77,26.616C-337.918,45.795 -331.452,67.639 -308.809,85.28C-327.129,106.116 -323.487,124.426 -293.895,142.202C-302.085,161.639 -320.389,190.042 -264.556,206.168C-255.151,208.885 -164.613,214.948 -111.359,196.225C-94.564,190.428 -76.82,189.413 -35.3,191.668L-0.166,193.577L0,21.231Z" style="fill:none;fill-rule:nonzero;stroke:rgb(158,65,33);stroke-width:15px;"/>
        </g>
        <g transform="matrix(1,0,0,1,338,89.0633)">
            <path d="M0,187.5L750,187.5L375,0L0,187.5Z" style="fill:none;fill-rule:nonzero;stroke:rgb(3,4,4);stroke-width:15px;"/>
        </g>
    </g>
</svg>
